<svg xmlns="http://www.w3.org/2000/svg" xmlns:xlink="http://www.w3.org/1999/xlink" width="500" zoomAndPan="magnify" viewBox="0 0 375 374.999991" height="500" preserveAspectRatio="xMidYMid meet" version="1.0"><defs><clipPath id="d2650ba90d"><path d="M 76.804688 75.402344 L 298.054688 75.402344 L 298.054688 299.652344 L 76.804688 299.652344 Z M 76.804688 75.402344 " clip-rule="nonzero"/></clipPath></defs><g clip-path="url(#d2650ba90d)"><path fill="#0f1120" d="M 238.390625 90.109375 L 260.945312 90.109375 L 260.945312 131 L 298.160156 159.203125 L 298.160156 299.59375 L 238.390625 299.59375 L 238.390625 227.808594 L 187.902344 278.25 L 137.414062 227.808594 L 137.414062 299.59375 L 76.835938 299.59375 L 76.835938 159.203125 L 187.5 75.402344 L 238.390625 113.964844 Z M 99.390625 277.039062 L 114.90625 277.039062 L 114.90625 173.375 L 187.945312 246.414062 L 260.988281 173.375 L 260.988281 277.039062 L 275.652344 277.039062 L 275.652344 170.414062 L 187.5 103.695312 L 99.390625 170.414062 Z M 99.390625 277.039062 " fill-opacity="1" fill-rule="evenodd"/></g></svg>