<svg xmlns="http://www.w3.org/2000/svg" xmlns:xlink="http://www.w3.org/1999/xlink" width="500" zoomAndPan="magnify" viewBox="0 0 375 374.999991" height="500" preserveAspectRatio="xMidYMid meet" version="1.0"><defs><clipPath id="653b2c5302"><path d="M 17.25 0 L 357.75 0 C 362.324219 0 366.710938 1.816406 369.949219 5.050781 C 373.183594 8.289062 375 12.675781 375 17.25 L 375 357.75 C 375 362.324219 373.183594 366.710938 369.949219 369.949219 C 366.710938 373.183594 362.324219 375 357.75 375 L 17.25 375 C 12.675781 375 8.289062 373.183594 5.050781 369.949219 C 1.816406 366.710938 0 362.324219 0 357.75 L 0 17.25 C 0 12.675781 1.816406 8.289062 5.050781 5.050781 C 8.289062 1.816406 12.675781 0 17.25 0 Z M 17.25 0 " clip-rule="nonzero"/></clipPath><clipPath id="9a3d4264ae"><path d="M 55.421875 53.75 L 319.421875 53.75 L 319.421875 321.5 L 55.421875 321.5 Z M 55.421875 53.75 " clip-rule="nonzero"/></clipPath></defs><rect x="-37.5" width="450" fill="#ffffff" y="-37.499999" height="449.999989" fill-opacity="1"/><rect x="-37.5" width="450" fill="#ffffff" y="-37.499999" height="449.999989" fill-opacity="1"/><g clip-path="url(#653b2c5302)"><rect x="-37.5" width="450" fill="#0f1120" y="-37.499999" height="449.999989" fill-opacity="1"/></g><g clip-path="url(#9a3d4264ae)"><path fill="#ffffff" d="M 248.21875 71.296875 L 275.128906 71.296875 L 275.128906 120.089844 L 319.535156 153.738281 L 319.535156 321.242188 L 248.21875 321.242188 L 248.21875 235.59375 L 187.980469 295.777344 L 127.742188 235.59375 L 127.742188 321.242188 L 55.464844 321.242188 L 55.464844 153.738281 L 187.5 53.75 L 248.21875 99.761719 Z M 82.375 294.332031 L 100.886719 294.332031 L 100.886719 170.644531 L 188.035156 257.792969 L 275.183594 170.644531 L 275.183594 294.332031 L 292.675781 294.332031 L 292.675781 167.113281 L 187.5 87.507812 L 82.375 167.113281 Z M 82.375 294.332031 " fill-opacity="1" fill-rule="evenodd"/></g></svg>